<?xml version="1.0" standalone="no"?>
<!DOCTYPE svg PUBLIC "-//W3C//DTD SVG 20010904//EN"
 "http://www.w3.org/TR/2001/REC-SVG-20010904/DTD/svg10.dtd">
<svg version="1.0" xmlns="http://www.w3.org/2000/svg"
 width="500.000000pt" height="500.000000pt" viewBox="0 0 500.000000 500.000000"
 preserveAspectRatio="xMidYMid meet">

<g transform="translate(0.000000,500.000000) scale(0.100000,-0.100000)"
fill="#000000" stroke="none">
<path d="M1261 3474 l-31 -26 0 -948 0 -948 31 -26 31 -26 443 0 444 0 28 24
28 24 3 934 c2 688 -1 940 -9 961 -24 58 -14 57 -495 57 l-442 0 -31 -26z
m941 -15 c17 -20 18 -81 18 -959 0 -908 -1 -939 -19 -961 l-19 -24 -445 0
-445 0 -26 24 -26 24 0 937 0 937 23 20 c12 11 28 22 34 24 7 2 210 3 450 2
434 -2 438 -3 455 -24z"/>
<path d="M1527 3439 c-13 -18 -24 -20 -88 -19 -114 2 -118 2 -144 -25 l-25
-24 0 -758 c0 -843 -4 -793 68 -813 51 -14 744 -13 795 1 69 19 67 -10 67 807
0 507 -3 739 -11 761 -16 45 -40 53 -144 52 -80 -1 -94 1 -110 19 -17 19 -30
20 -206 20 -179 0 -189 -1 -202 -21z m3 -49 c19 -19 33 -20 205 -20 174 0 186
1 197 20 11 18 24 20 104 20 77 0 95 -3 118 -21 l26 -20 0 -760 c0 -746 0
-759 -20 -779 -19 -19 -33 -20 -424 -20 -383 0 -405 1 -427 19 l-24 19 -3 736
c-1 405 1 751 6 769 11 44 42 57 140 57 69 0 85 -3 102 -20z"/>
<path d="M1690 2600 l0 -380 70 0 70 0 0 170 0 170 65 0 65 0 0 -170 0 -170
75 0 75 0 0 380 0 380 -75 0 -75 0 0 -135 0 -135 -65 0 -65 0 0 135 0 135 -70
0 -70 0 0 -380z"/>
<path d="M1705 1751 c-50 -21 -73 -76 -50 -120 45 -87 165 -55 165 44 0 50
-68 95 -115 76z m75 -31 c24 -24 26 -77 3 -102 -35 -39 -123 -6 -123 47 0 62
78 97 120 55z"/>
<path d="M2480 2969 c-96 -38 -170 -198 -170 -369 0 -380 294 -521 422 -201
20 49 22 74 22 201 0 127 -2 152 -22 201 -57 142 -154 207 -252 168z m89 -155
c69 -88 68 -348 -2 -429 -30 -36 -50 -25 -84 43 -26 52 -28 66 -28 172 0 120
16 179 59 223 23 23 31 22 55 -9z"/>
<path d="M2970 2600 l0 -380 70 0 70 0 0 175 0 175 65 0 65 0 0 -175 0 -175
70 0 70 0 0 380 0 380 -70 0 -70 0 0 -140 0 -140 -65 0 -65 0 0 140 0 140 -70
0 -70 0 0 -380z"/>
<path d="M3780 2977 c0 -1 -34 -171 -75 -377 -41 -206 -75 -376 -75 -377 0 -2
31 -3 69 -3 l70 0 11 58 c19 97 15 92 80 92 l59 0 11 -57 c20 -99 13 -93 91
-93 38 0 69 2 69 5 0 5 -145 691 -155 733 -5 20 -11 22 -80 22 -41 0 -75 -1
-75 -3z m95 -406 l13 -61 -30 0 c-26 0 -29 3 -25 23 4 12 9 41 13 65 4 23 9
41 11 38 3 -3 11 -32 18 -65z"/>
<path d="M2762 2104 c-64 -32 -99 -106 -136 -283 -15 -68 -24 -126 -22 -129
12 -12 36 10 36 32 0 23 57 102 67 92 2 -2 -1 -22 -7 -45 -8 -29 -8 -47 0 -61
14 -26 60 -26 90 -2 23 18 24 18 42 0 38 -38 98 -15 113 44 5 21 14 27 41 30
34 4 35 3 29 -26 -4 -17 -9 -39 -11 -48 -4 -13 0 -18 15 -18 15 0 21 6 21 21
0 28 36 86 62 100 19 10 20 9 13 -17 -5 -16 -9 -45 -9 -64 -1 -33 1 -35 32
-38 22 -2 41 3 53 14 18 16 20 16 37 1 21 -19 58 -22 99 -6 33 12 73 48 73 65
0 7 -14 -1 -31 -17 -30 -28 -88 -47 -108 -34 -19 11 -13 45 8 45 11 0 33 11
48 24 23 20 26 28 17 43 -6 10 -23 19 -38 21 -41 5 -72 -21 -79 -64 -7 -45
-32 -74 -64 -74 -27 0 -27 -1 -8 69 21 79 3 93 -56 44 l-32 -28 7 28 c5 22 3
27 -13 27 -13 0 -21 -8 -23 -22 -2 -17 -11 -24 -31 -26 -35 -4 -57 13 -57 44
0 27 -3 28 -28 15 -9 -5 -29 -14 -44 -22 -18 -8 -31 -24 -38 -47 -12 -45 -47
-82 -78 -82 -24 0 -24 2 -18 50 4 28 9 57 12 65 10 26 -25 29 -58 5 l-30 -22
7 43 c17 106 59 190 105 214 42 22 67 19 97 -11 l26 -26 -7 29 c-4 15 -13 34
-19 40 -21 21 -70 24 -105 7z m543 -274 c10 -16 -14 -50 -35 -50 -24 0 -25 8
-4 38 16 24 29 28 39 12z m-389 -23 c9 -40 -9 -92 -34 -95 -23 -3 -26 4 -22
47 5 65 43 97 56 48z"/>
<path d="M2334 1961 c-12 -13 0 -21 31 -21 42 0 42 -2 15 -120 -25 -111 -25
-130 0 -130 15 0 20 7 20 29 0 35 27 178 40 209 19 45 100 20 100 -31 0 -41
-27 -67 -71 -67 -41 0 -52 -14 -19 -25 26 -8 83 10 104 34 9 10 19 34 22 53 5
30 2 38 -22 57 -25 20 -38 22 -122 19 -51 -2 -96 -5 -98 -7z"/>
<path d="M3689 1950 c-10 -6 -20 -29 -23 -55 -6 -35 -11 -45 -26 -45 -10 0
-22 -4 -25 -10 -3 -5 3 -10 14 -10 19 0 20 -6 18 -67 l-2 -68 33 -3 c19 -2 44
4 59 13 22 15 26 15 42 1 37 -34 111 -7 111 40 0 25 4 28 53 38 28 7 28 6 21
-31 -3 -21 -7 -42 -8 -47 0 -6 6 -11 15 -13 12 -3 18 7 23 39 11 70 54 115 70
73 3 -8 17 -15 31 -15 23 0 25 -3 23 -36 -3 -42 19 -64 64 -64 37 0 104 34
118 59 17 34 11 34 -25 2 -40 -35 -81 -48 -104 -34 -28 18 -24 40 8 46 44 9
74 42 61 67 -14 27 -71 27 -95 0 -10 -11 -26 -20 -36 -20 -10 0 -21 9 -24 20
-7 22 -35 26 -53 8 -9 -9 -12 -9 -12 0 0 21 -35 13 -45 -10 -7 -16 -19 -23
-39 -23 -28 0 -38 10 -50 48 -4 13 -10 15 -23 9 -10 -5 -31 -15 -47 -23 -21
-10 -32 -25 -38 -49 -10 -40 -50 -80 -79 -80 -20 0 -22 6 -19 55 2 53 10 65
38 65 15 0 34 5 42 10 11 7 4 10 -26 10 l-42 0 10 42 c5 23 14 48 20 55 13 16
-8 18 -33 3z m517 -125 c7 -18 -12 -45 -32 -45 -17 0 -18 32 -2 48 16 16 27
15 34 -3z m-343 -9 c7 -17 -8 -85 -22 -99 -5 -5 -17 -7 -27 -3 -30 12 -3 116
31 116 7 0 15 -6 18 -14z"/>
<path d="M3512 1838 c-19 -19 -14 -42 13 -68 30 -28 32 -46 5 -60 -15 -8 -24
-6 -39 9 -12 12 -23 16 -26 10 -11 -17 16 -39 47 -39 69 0 88 43 42 91 -30 31
-24 53 13 46 15 -3 22 0 20 7 -5 16 -60 19 -75 4z"/>
</g>
</svg>
